<svg width="12" height="12" viewBox="0 0 12 12" fill="none" xmlns="http://www.w3.org/2000/svg">
<path d="M7 6V9.94C7.02 10.09 6.97 10.25 6.855 10.355C6.80875 10.4014 6.7538 10.4381 6.69332 10.4632C6.63283 10.4883 6.56799 10.5012 6.5025 10.5012C6.43702 10.5012 6.37218 10.4883 6.31169 10.4632C6.25121 10.4381 6.19626 10.4014 6.15 10.355L5.145 9.35C5.09047 9.29669 5.04901 9.23149 5.02385 9.1595C4.9987 9.08751 4.99054 9.01067 5 8.935V6H4.985L2.105 2.31C2.02381 2.20577 1.98717 2.07363 2.0031 1.94246C2.01903 1.8113 2.08622 1.69177 2.19 1.61C2.285 1.54 2.39 1.5 2.5 1.5H9.5C9.61 1.5 9.715 1.54 9.81 1.61C9.91379 1.69177 9.98098 1.8113 9.99691 1.94246C10.0128 2.07363 9.9762 2.20577 9.895 2.31L7.015 6H7Z" fill="#454954"/>
</svg>
