<svg width="17" height="17" viewBox="0 0 17 17" fill="none" xmlns="http://www.w3.org/2000/svg">
<g id="mdi:film-open">
<path id="Vector" d="M14.7616 1.54416L11.9778 2.09666L13.9186 4.60416L15.3141 4.32083L14.7616 1.54416ZM9.89531 2.50749L8.49989 2.78374L10.4478 5.28416L11.8361 5.00791L9.89531 2.50749ZM6.42448 3.18749L5.02906 3.47791L6.97698 5.97832L8.36531 5.70208L6.42448 3.18749ZM2.94656 3.89583L2.25239 4.03041C1.88433 4.10395 1.56049 4.32054 1.35199 4.63264C1.14348 4.94473 1.06735 5.32681 1.14031 5.69499L1.41656 7.08333L4.88739 6.39624L2.94656 3.89583ZM1.41656 7.08333V14.1667C1.41656 14.5424 1.56581 14.9027 1.83149 15.1684C2.09717 15.4341 2.4575 15.5833 2.83323 15.5833H14.1666C14.9528 15.5833 15.5832 14.9529 15.5832 14.1667V7.08333H1.41656Z" fill="#CDCDCD"/>
</g>
</svg>
