<svg width="17" height="17" viewBox="0 0 17 17" fill="none" xmlns="http://www.w3.org/2000/svg">
<g id="mdi:location">
<path id="Vector" d="M8.50008 8.14582C8.03043 8.14582 7.58001 7.95925 7.24791 7.62716C6.91582 7.29506 6.72925 6.84464 6.72925 6.37499C6.72925 5.90534 6.91582 5.45492 7.24791 5.12282C7.58001 4.79073 8.03043 4.60416 8.50008 4.60416C8.96974 4.60416 9.42015 4.79073 9.75225 5.12282C10.0843 5.45492 10.2709 5.90534 10.2709 6.37499C10.2709 6.60754 10.2251 6.83781 10.1361 7.05266C10.0471 7.26751 9.91669 7.46272 9.75225 7.62716C9.58781 7.7916 9.3926 7.92203 9.17775 8.01103C8.9629 8.10002 8.73263 8.14582 8.50008 8.14582ZM8.50008 1.41666C7.18505 1.41666 5.92388 1.93905 4.99401 2.86892C4.06414 3.79879 3.54175 5.05996 3.54175 6.37499C3.54175 10.0937 8.50008 15.5833 8.50008 15.5833C8.50008 15.5833 13.4584 10.0937 13.4584 6.37499C13.4584 5.05996 12.936 3.79879 12.0062 2.86892C11.0763 1.93905 9.81511 1.41666 8.50008 1.41666Z" fill="#E6E6E6"/>
</g>
</svg>
