<svg width="106" height="59" viewBox="0 0 106 59" fill="none" xmlns="http://www.w3.org/2000/svg">
<path d="M28 3L30.3041 27.8287L54.6296 22.3475L31.7281 32.2113L44.458 53.6525L28 34.92L11.542 53.6525L24.2719 32.2113L1.37042 22.3475L25.6959 27.8287L28 3Z" fill="#E8C547"/>
<path d="M49.4651 39.0963C49.4791 39.33 49.4152 39.5463 49.2735 39.7453C49.1398 39.9338 48.9612 40.1049 48.7378 40.2589C48.5223 40.4023 48.2845 40.5205 48.0242 40.6136C47.7732 40.7055 47.5414 40.7663 47.3289 40.7962C46.7004 40.8845 46.1158 40.8159 45.5751 40.5903C45.0332 40.3554 44.5535 40.027 44.136 39.605C43.7172 39.1737 43.3653 38.6812 43.0801 38.1275C42.8068 37.591 42.6179 37.0521 42.5136 36.5106C42.6113 37.0718 42.7975 37.6253 43.0721 38.1711C43.3586 38.734 43.7112 39.2311 44.1299 39.6624C44.5487 40.0936 45.0337 40.426 45.5849 40.6596C46.1348 40.8839 46.7286 40.9512 47.3663 40.8616C47.7175 40.8122 48.0517 40.7087 48.3689 40.5511C48.686 40.3934 48.9742 40.1974 49.2334 39.963C49.0663 40.3164 48.8169 40.5871 48.4852 40.7751C48.1534 40.9631 47.8027 41.083 47.433 41.135C47.0171 41.1934 46.6251 41.1873 46.257 41.1165C45.8902 41.0549 45.5229 40.9228 45.1551 40.72L45.0685 40.5059C44.657 40.3281 44.2887 40.0877 43.9633 39.7847C43.6472 39.4804 43.3735 39.1419 43.142 38.7692C42.9198 38.3951 42.7366 37.9967 42.5923 37.574C42.4573 37.15 42.3593 36.7208 42.2983 36.2864C42.2333 35.8243 42.2106 35.3609 42.2301 34.8964C42.2576 34.4213 42.3187 33.9508 42.4135 33.4851C42.3765 33.4903 42.3561 33.4791 42.3522 33.4513C42.2179 33.9038 42.1363 34.3629 42.1075 34.8288C42.0788 35.2947 42.0975 35.7633 42.1637 36.2346C42.2897 37.1312 42.5868 37.9707 43.0549 38.7531C43.5217 39.5263 44.142 40.1508 44.9157 40.6264C44.5163 40.3998 44.1526 40.1257 43.8247 39.8042C43.506 39.4814 43.2303 39.129 42.9975 38.7471C42.7635 38.3558 42.569 37.9449 42.4143 37.5142C42.2687 37.0823 42.1641 36.6399 42.1005 36.187C42.0148 35.577 42.0109 34.946 42.089 34.2942C42.1749 33.6318 42.3525 33.0177 42.6218 32.4521C42.9002 31.8851 43.2755 31.4036 43.7477 31.0073C44.2185 30.6019 44.8005 30.3504 45.4937 30.253C45.8079 30.2088 46.1108 30.2181 46.4024 30.2808C46.7032 30.3422 46.9901 30.4385 47.263 30.5698C47.5359 30.7011 47.7936 30.8581 48.0361 31.0408C48.2878 31.2222 48.5262 31.4102 48.7515 31.6047L48.4954 31.8952C48.3595 31.8672 48.225 31.8154 48.0919 31.7399C47.9667 31.6538 47.8507 31.5664 47.744 31.4777L47.6745 31.5865C47.8141 31.7082 47.9478 31.8544 48.0754 32.0249C48.2017 32.1862 48.2786 32.364 48.3058 32.558L48.1884 32.829C48.067 32.8367 47.9047 32.7888 47.7017 32.6854C47.5066 32.5714 47.2877 32.4561 47.0451 32.3394C46.8105 32.2121 46.5685 32.1 46.3193 32.0031C46.0793 31.9049 45.853 31.8707 45.6404 31.9006C45.3631 31.9396 45.1233 32.044 44.921 32.2138C44.7279 32.3823 44.5591 32.5898 44.4147 32.8363C44.2703 33.0828 44.1535 33.3584 44.0644 33.6631C43.9845 33.9665 43.9237 34.2719 43.8821 34.5794C43.8497 34.8855 43.8306 35.1851 43.8246 35.4781C43.8266 35.7606 43.8426 36.0081 43.8724 36.2207C43.9231 36.5812 44.0344 36.9708 44.2064 37.3896C44.3876 37.8071 44.6157 38.1898 44.8908 38.5375C45.1738 38.8747 45.4992 39.1448 45.867 39.3475C46.2348 39.5503 46.6313 39.6218 47.0565 39.5621C47.2505 39.5348 47.4467 39.4884 47.6448 39.4229C47.8509 39.3468 48.03 39.2462 48.182 39.1211L48.3105 39.2303C47.9969 39.5477 47.6137 39.7382 47.1608 39.8019C46.7172 39.8642 46.2956 39.8151 45.896 39.6545C46.0885 39.75 46.2949 39.8105 46.5153 39.8361C46.7555 39.8683 46.9911 39.8682 47.2221 39.8357C47.6473 39.7759 48.0278 39.5999 48.3638 39.3077L48.5139 39.4704C48.592 39.3557 48.6939 39.2424 48.8195 39.1305C48.9439 39.0094 49.0787 38.9292 49.224 38.8899L49.4651 39.0963ZM43.7775 37.054C43.899 37.5836 44.1283 38.0745 44.4651 38.5267C44.8007 38.9696 45.2065 39.3084 45.6824 39.5431C45.2052 39.2992 44.808 38.9544 44.4909 38.5089C44.1633 38.0554 43.9255 37.5705 43.7775 37.054ZM51.4378 39.5825C51.4384 39.3185 51.4285 39.0136 51.4082 38.6677C51.3958 38.3113 51.3788 37.9556 51.3571 37.6005C51.3355 37.2453 51.3152 36.8995 51.2961 36.5628C51.2758 36.217 51.262 35.9173 51.2546 35.6639C51.2435 35.9199 51.2422 36.2123 51.2507 36.541C51.2591 36.8697 51.2689 37.2076 51.28 37.5547C51.2911 37.9019 51.3022 38.2491 51.3133 38.5963C51.3231 38.9342 51.333 39.2391 51.3429 39.511C51.1913 39.4381 51.1044 39.3231 51.0823 39.1659C51.0564 38.9811 51.0396 38.8279 51.0319 38.7065C51.023 38.5758 51.016 38.426 51.0111 38.257L51.1442 38.0969C51.1284 38.052 51.118 38.0111 51.1128 37.9741L51.0933 37.8355C51.0634 37.6229 51.0527 37.3793 51.0613 37.1048C51.0685 36.821 51.0804 36.5366 51.0969 36.2516C51.1213 35.9559 51.1384 35.6755 51.1483 35.4102C51.1568 35.1357 51.1475 34.9014 51.1202 34.7073L50.948 34.6891C50.9607 34.9135 50.9687 35.1716 50.972 35.4633C50.974 35.7457 50.9733 36.0427 50.9699 36.3542C50.9745 36.6552 50.9791 36.9561 50.9837 37.2571C50.9873 37.4168 50.9896 37.5673 50.9906 37.7085C50.9727 37.4471 50.9569 37.1666 50.943 36.867C50.9295 36.4353 50.9166 36.0083 50.9044 35.5859C50.9001 35.1529 50.8924 34.7299 50.8815 34.3167C50.8706 33.9035 50.8642 33.5227 50.8623 33.1742C50.8428 33.0356 50.8544 32.8832 50.897 32.717C50.9476 32.5402 50.9744 32.3621 50.9774 32.1826C51.0355 32.1933 51.083 32.196 51.12 32.1908L51.217 32.1772C51.3094 32.1642 51.3728 32.1789 51.407 32.2212C51.4399 32.2542 51.4616 32.3078 51.4719 32.3817L51.4817 32.451L51.6123 32.4751C51.6668 32.326 51.739 32.2028 51.829 32.1053C51.9189 32.0078 52.0148 31.952 52.1164 31.9377C52.3382 31.9065 52.4823 32.1266 52.5485 32.598C52.5836 32.8475 52.5935 33.1194 52.5784 33.4138C52.5711 33.6975 52.5863 33.9734 52.624 34.2415L52.6493 34.4217C52.6909 34.7174 52.704 35.0455 52.6887 35.4058C52.672 35.7569 52.6474 36.1185 52.6149 36.4906C52.5903 36.8522 52.5691 37.2039 52.5511 37.5458C52.5332 37.8876 52.5437 38.1971 52.5827 38.4744C52.5918 38.5391 52.6062 38.6078 52.6258 38.6804C52.6454 38.753 52.6598 38.8217 52.6689 38.8864C52.6884 39.0251 52.673 39.1168 52.6227 39.1615C52.5804 39.1957 52.5223 39.218 52.4483 39.2284C52.4314 39.1083 52.406 38.9611 52.3721 38.7867C52.3382 38.6124 52.3115 38.456 52.292 38.3173C52.2878 38.4216 52.2981 38.5615 52.3227 38.7371C52.3474 38.9127 52.3616 39.0804 52.3652 39.2401L52.1572 39.2694L52.1806 39.4357C52.1182 39.5953 52.0177 39.6848 51.879 39.7043C51.8143 39.7134 51.7378 39.7053 51.6494 39.68C51.561 39.6547 51.4905 39.6222 51.4378 39.5825ZM52.7973 28.5338C52.6532 28.6483 52.5268 28.7886 52.4182 28.9546C52.3096 29.1207 52.1957 29.2828 52.0766 29.4409C52.1519 29.3738 52.2174 29.3033 52.273 29.2295C52.3287 29.1557 52.3843 29.0819 52.4399 29.0082C52.5047 28.9331 52.5696 28.858 52.6344 28.7829C52.7085 28.7065 52.7925 28.6334 52.8863 28.5637C52.9193 28.5968 52.9469 28.6259 52.9693 28.651C53.0009 28.6748 53.0187 28.7006 53.0226 28.7283L52.7485 29.092C52.7459 29.0735 52.7249 29.0576 52.6853 29.0443C52.655 29.0298 52.6306 29.0238 52.6121 29.0264C52.5973 29.1227 52.5615 29.2031 52.5046 29.2677C52.4477 29.3322 52.3902 29.3921 52.3319 29.4474C52.2737 29.5028 52.2162 29.5627 52.1593 29.6272C52.1024 29.6918 52.0666 29.7722 52.0518 29.8685L52.0557 29.8963C52.057 29.9055 52.0715 29.9082 52.0993 29.9043L52.7009 29.1553L52.4745 29.4557C52.3633 29.6033 52.2435 29.7568 52.1151 29.9162C51.9946 30.0651 51.8768 30.1994 51.7617 30.3193C51.6559 30.4378 51.5891 30.4991 51.5613 30.503L51.5455 30.4911C51.4782 30.4817 51.4076 30.4822 51.3337 30.4925C51.269 30.5016 51.199 30.5068 51.1238 30.5079C51.1134 30.434 51.0885 30.3574 51.0491 30.2781C51.0189 30.1975 51.0006 30.1341 50.9941 30.0879C50.9876 30.0417 51.0074 30.0153 51.0536 30.0088C51.0497 29.9811 51.0254 29.9421 50.9806 29.8918C50.9438 29.831 50.9017 29.7663 50.8544 29.6975C50.8057 29.6195 50.7571 29.5415 50.7084 29.4636C50.6677 29.375 50.6408 29.2846 50.6278 29.1921C50.6148 29.0997 50.6395 29.0067 50.7017 28.9131C50.7719 28.809 50.8533 28.7175 50.9459 28.6385C51.0477 28.5582 51.1462 28.4878 51.2414 28.4273C51.3365 28.3668 51.4059 28.3241 51.4495 28.2991C51.4865 28.2939 51.4978 28.2734 51.4833 28.2378C51.4676 28.1929 51.4782 28.1678 51.5152 28.1626L51.7764 28.2107C51.7644 28.2595 51.7154 28.3465 51.6293 28.4717C51.5512 28.5864 51.4923 28.6701 51.4525 28.7228C51.5107 28.6675 51.5749 28.5878 51.6451 28.4837C51.7246 28.3782 51.7841 28.2992 51.8239 28.2465C51.8727 28.2585 51.9169 28.2711 51.9564 28.2844C51.996 28.2977 52.025 28.303 52.0435 28.3004L52.0793 28.253C52.144 28.2439 52.2152 28.248 52.2931 28.2654C52.3801 28.2814 52.4586 28.3033 52.5285 28.3312C52.5984 28.3591 52.6597 28.3929 52.7124 28.4326C52.7651 28.4723 52.7934 28.5061 52.7973 28.5338ZM51.0096 38.0451C51.0046 37.9422 50.9996 37.8392 50.9945 37.7362C51.0009 37.8485 51.0059 37.9514 51.0096 38.0451ZM55.7145 38.8118C55.708 38.7656 55.7141 38.7082 55.7328 38.6396C55.7514 38.571 55.7555 38.4997 55.7451 38.4258C55.7417 38.2001 55.7381 38.0404 55.7343 37.9466C55.7293 37.8437 55.7216 37.7552 55.7112 37.6813C55.6566 37.2931 55.5843 36.8791 55.4942 36.4394C55.4121 35.9891 55.3279 35.558 55.2418 35.1459C55.2236 35.0165 55.1975 34.8647 55.1636 34.6904C55.1389 34.5148 55.1102 34.3774 55.0774 34.2784C55.0597 33.951 55.038 33.6289 55.0123 33.312C54.9866 32.9952 54.951 32.675 54.9056 32.3515L54.8569 32.0049C54.84 31.8848 54.8185 31.7653 54.7923 31.6464C54.824 31.6703 54.8536 31.6802 54.8814 31.6763C54.9183 31.6711 54.9534 31.6521 54.9864 31.6191C55.0287 31.5849 55.0684 31.5652 55.1054 31.56C55.1701 31.5509 55.2306 31.6131 55.2871 31.7465C55.3528 31.8787 55.4188 32.1804 55.485 32.6518L55.6098 32.6343C55.5832 32.1102 55.5948 31.6892 55.6443 31.3712C55.7031 31.0519 55.7834 30.8851 55.885 30.8708C55.9312 30.8643 56.0195 30.9556 56.1497 31.1446C56.2787 31.3244 56.373 31.6269 56.4328 32.0521L56.5502 31.7811C56.635 31.6467 56.7283 31.5063 56.8303 31.36C56.9415 31.2124 57.0685 31.0768 57.2114 30.953C57.3542 30.8293 57.5181 30.7214 57.7031 30.6294C57.8868 30.5282 58.1035 30.4601 58.353 30.425C58.8336 30.3574 59.2651 30.4099 59.6475 30.5824C60.0378 30.7443 60.3778 30.984 60.6675 31.3014C60.9559 31.6096 61.2052 31.9751 61.4154 32.398C61.6336 32.8103 61.8161 33.2371 61.9629 33.6783C62.1084 34.1102 62.2243 34.5322 62.3105 34.9442C62.3966 35.3562 62.4605 35.7101 62.5021 36.0059C62.5398 36.2739 62.544 36.4382 62.5148 36.4989C62.4936 36.549 62.442 36.5845 62.3602 36.6055C62.2416 35.8964 62.0935 35.1773 61.9156 34.4483C61.7378 33.7193 61.4615 33.0277 61.0868 32.3735C61.4389 33.0686 61.6974 33.7674 61.8621 34.47C62.0348 35.162 62.1711 35.8639 62.2711 36.5756C62.2118 36.5556 62.159 36.5489 62.1128 36.5554C62.0758 36.5606 62.0454 36.579 62.0216 36.6106C62.032 36.6846 62.0476 36.7625 62.0686 36.8444C62.0882 36.917 62.1032 36.9903 62.1136 37.0642C62.1332 37.1369 62.1476 37.2055 62.1567 37.2702C62.1311 37.4906 62.0971 37.6509 62.0546 37.7511C62.0122 37.8513 61.9678 37.9047 61.9216 37.9112C61.8662 37.919 61.8167 37.9024 61.7732 37.8614C61.7285 37.8111 61.6824 37.7516 61.635 37.6829C61.5969 37.6128 61.5535 37.5388 61.5049 37.4608C61.4642 37.3723 61.4102 37.2903 61.3431 37.2149C61.3395 37.0552 61.3358 36.9285 61.3321 36.8348C61.327 36.7318 61.3199 36.648 61.3109 36.5833C61.2758 36.3337 61.2289 36.034 61.1703 35.6841C61.1117 35.3342 61.0327 34.973 60.9332 34.6005C60.8417 34.2175 60.7231 33.8431 60.5774 33.4771C60.4397 33.1006 60.2715 32.7755 60.0728 32.5019C59.882 32.2176 59.6581 31.9993 59.4011 31.847C59.1428 31.6853 58.8518 31.6273 58.5284 31.6727C58.3065 31.7039 58.1182 31.8058 57.9634 31.9783C57.8178 32.1496 57.6966 32.3598 57.5996 32.6091C57.512 32.857 57.4414 33.1262 57.3879 33.4164C57.3332 33.6974 57.2956 33.9666 57.2752 34.224C57.322 33.9535 57.3682 33.6784 57.4137 33.3987C57.4685 33.1176 57.5403 32.8578 57.6293 32.6191C57.7275 32.3791 57.8501 32.178 57.997 32.016C58.1425 31.8448 58.3262 31.7435 58.5481 31.7124C58.8346 31.6721 59.0906 31.7162 59.316 31.8448C59.5506 31.972 59.7548 32.1507 59.9285 32.3808C60.1115 32.6095 60.2673 32.8798 60.3959 33.1916C60.5325 33.4929 60.6473 33.8066 60.7403 34.1328C60.8319 34.4498 60.9045 34.7648 60.9579 35.0777C61.0192 35.3801 61.0655 35.6423 61.0967 35.8641C61.1214 36.0397 61.1414 36.2159 61.1569 36.3928C61.1815 36.5685 61.2022 36.7493 61.219 36.9355C61.0864 36.596 60.9704 36.24 60.871 35.8675C60.7794 35.4845 60.6846 35.1114 60.5864 34.7482C60.4869 34.3758 60.3762 34.0238 60.2542 33.6922C60.1402 33.3501 59.9976 33.0402 59.8267 32.7626L59.9042 32.6104C59.7819 32.4108 59.6529 32.264 59.5172 32.17C59.3894 32.0654 59.2661 31.9932 59.1474 31.9533C59.0287 31.9134 58.9225 31.8954 58.8288 31.8991C58.7351 31.9029 58.6743 31.9067 58.6466 31.9106C58.4155 31.9431 58.2193 32.0555 58.0578 32.2478C57.9056 32.4389 57.7803 32.6874 57.6819 32.9934C57.5915 33.2888 57.5214 33.6286 57.4717 34.0126C57.422 34.3965 57.3888 34.7971 57.372 35.2141C57.3552 35.6312 57.3483 36.0516 57.3513 36.4753C57.353 36.8897 57.3607 37.2798 57.3744 37.6455L57.4991 37.6279C57.5012 37.3072 57.4987 36.9541 57.4917 36.5687C57.4938 36.1819 57.4954 35.7906 57.4963 35.3946C57.5051 34.9881 57.5252 34.5941 57.5564 34.2127C57.5876 33.8313 57.6379 33.485 57.7072 33.1736C57.7858 32.861 57.8907 32.6012 58.0218 32.3942C58.145 32.1979 58.311 32.0709 58.5197 32.0133C58.3228 32.088 58.17 32.2415 58.0613 32.4735C57.9446 32.7161 57.8535 33.007 57.788 33.346C57.7226 33.6851 57.6709 34.0552 57.6331 34.4564C57.6031 34.8471 57.5759 35.2232 57.5513 35.5848L57.5585 37.6479C57.5397 37.7824 57.5282 37.9019 57.524 38.0061L57.5095 38.3051C57.504 38.4001 57.4998 38.5044 57.4969 38.6179C57.4927 38.7221 57.4865 38.8455 57.4782 38.9881L57.46 39.1603L57.3768 39.172L55.9104 38.8974C55.8628 38.8946 55.8239 38.886 55.7936 38.8714C55.7725 38.8555 55.7462 38.8356 55.7145 38.8118ZM57.1273 31.3607C56.9645 31.5438 56.8407 31.7356 56.7557 31.936C56.6788 32.1259 56.607 32.3198 56.5406 32.5176L56.5425 32.5315C56.6343 32.2452 56.7762 31.9473 56.9683 31.6375C57.1537 31.3475 57.4222 31.1119 57.7737 30.9305C57.6588 30.9844 57.5484 31.0376 57.4427 31.0902C57.3198 31.1546 57.2147 31.2447 57.1273 31.3607ZM58.7266 30.6694C58.6791 30.6666 58.6138 30.6711 58.5306 30.6828C58.8368 30.7152 59.1257 30.7594 59.3975 30.8154C59.668 30.8622 59.9369 30.9988 60.2044 31.2251C60.0174 31.0346 59.786 30.8975 59.5104 30.8137C59.2439 30.7286 58.9827 30.6805 58.7266 30.6694ZM59.3231 32.1972C59.2414 32.1522 59.1477 32.1229 59.0421 32.1095C58.9445 32.0855 58.8225 32.0555 58.6761 32.0195L58.6583 31.9938C58.8167 31.9809 58.9606 31.9984 59.0898 32.0462C59.2177 32.0848 59.3476 32.1702 59.4793 32.3025L59.3231 32.1972ZM60.236 31.2489C60.3875 31.3879 60.533 31.5512 60.6724 31.739C60.8119 31.9267 60.9343 32.0933 61.0396 32.2387C60.9173 32.0392 60.8022 31.8574 60.6943 31.6935C60.5865 31.5296 60.4337 31.3814 60.236 31.2489ZM69.3522 38.0545C69.0178 38.224 68.7589 38.3263 68.5753 38.3616C68.3931 38.406 68.2333 38.4426 68.096 38.4713C67.5784 38.5441 67.098 38.5126 66.6548 38.377C66.2116 38.2414 65.8187 38.028 65.4762 37.7368C65.1337 37.4456 64.8481 37.0899 64.6194 36.6697C64.3986 36.2389 64.2525 35.7693 64.181 35.2609C64.1395 34.9652 64.1243 34.6563 64.1356 34.3342C64.1456 34.003 64.1846 33.677 64.2527 33.3564C64.3194 33.0266 64.4218 32.7153 64.5597 32.4226C64.6884 32.1312 64.8534 31.863 65.0545 31.6179C64.8415 31.8458 64.6707 32.1054 64.542 32.3968C64.404 32.6896 64.2971 33.0015 64.2211 33.3326C64.1438 33.6545 64.1008 33.9857 64.0921 34.3262C64.0821 34.6575 64.0985 34.9757 64.1414 35.2807C64.196 35.6688 64.3145 36.0763 64.497 36.5031C64.6874 36.9193 64.9479 37.2974 65.2785 37.6373C65.6077 37.9681 66.007 38.2277 66.4765 38.4162C66.9552 38.6034 67.5088 38.6528 68.1373 38.5645C68.4331 38.5229 68.7369 38.4378 69.0487 38.3092C68.7299 38.5896 68.3533 38.7603 67.9189 38.8214C67.5677 38.8707 67.2272 38.8621 66.8974 38.7953C66.5781 38.7365 66.2708 38.6289 65.9755 38.4725C65.6907 38.324 65.4238 38.1353 65.1749 37.9064C64.9259 37.6775 64.7067 37.4255 64.5173 37.1505L64.6265 37.0221C64.4252 36.7299 64.2655 36.4319 64.1474 36.1281C64.0385 35.8229 63.9614 35.5086 63.9159 35.1851C63.8497 34.7137 63.8507 34.2518 63.9191 33.7992C63.9966 33.3453 64.1191 32.9087 64.2863 32.4893L64.5548 31.9851C64.5959 31.8756 64.6602 31.7629 64.7476 31.6469C64.8442 31.5297 64.9507 31.4157 65.0671 31.3051C65.1822 31.1853 65.3039 31.0786 65.4322 30.9852C65.5683 30.8812 65.6966 30.7878 65.8169 30.7049C66.1262 30.4918 66.4382 30.2972 66.7527 30.121C67.066 29.9356 67.4399 29.7794 67.8744 29.6523L67.8131 29.6185C66.9745 29.8212 66.2828 30.1305 65.7381 30.5464C65.192 30.953 64.7672 31.418 64.4638 31.9413C64.1603 32.4646 63.965 33.0199 63.8779 33.607C63.7895 34.185 63.7829 34.742 63.8583 35.278C63.8986 35.5646 63.9626 35.8524 64.0504 36.1417C64.1461 36.4204 64.2649 36.6959 64.4068 36.9681C64.0978 36.4461 63.8998 35.8754 63.8128 35.2562C63.7271 34.6461 63.7437 34.0265 63.8626 33.3971C63.9815 32.7678 64.2224 32.1684 64.5853 31.599C65.0685 31.0128 65.6193 30.5395 66.2378 30.1792C66.8551 29.8097 67.4687 29.5821 68.0787 29.4964C68.2728 29.4691 68.4761 29.4735 68.6885 29.5097C68.9009 29.5458 69.1001 29.6215 69.2859 29.7367C69.4705 29.8427 69.6285 29.9949 69.76 30.1932C69.9008 30.3902 69.9927 30.6412 70.0355 30.9462C70.0706 31.1957 70.0534 31.5092 69.9839 31.8865C69.9144 32.2639 69.7835 32.6404 69.5913 33.0161C69.407 33.3813 69.1561 33.7088 68.8387 33.9984C68.5199 34.2789 68.1295 34.4516 67.6674 34.5165L67.2099 34.5808C66.8575 34.5549 66.5316 34.5159 66.2321 34.4637C65.9405 34.401 65.666 34.3595 65.4087 34.3391C65.3925 34.4922 65.3895 34.6387 65.3998 34.7786C65.418 34.908 65.4362 35.0374 65.4543 35.1668C65.492 35.4349 65.5568 35.6944 65.6486 35.9454C65.7484 36.1858 65.8779 36.4032 66.0371 36.5976C66.1964 36.792 66.3835 36.9495 66.5984 37.0701C66.8212 37.1802 67.0785 37.2336 67.3702 37.2303C67.551 37.2426 67.7067 37.2442 67.8374 37.2353C67.9668 37.2171 68.0737 37.2068 68.1582 37.2043C68.2506 37.1914 68.3173 37.1961 68.3582 37.2187C68.407 37.2306 68.4359 37.269 68.445 37.3337C68.3565 37.3744 68.262 37.4065 68.1617 37.4301C68.0705 37.4523 67.9741 37.4706 67.8725 37.4848C67.549 37.5303 67.2507 37.5204 66.9776 37.4551C66.7033 37.3806 66.4639 37.287 66.2596 37.1743C66.502 37.357 66.7776 37.4738 67.0864 37.5246C67.3938 37.5663 67.6908 37.5669 67.9773 37.5267C68.1344 37.5046 68.2942 37.468 68.4567 37.4169C68.446 37.4749 68.4413 37.5086 68.4426 37.5178C68.4504 37.5733 68.4787 37.607 68.5275 37.619C68.5632 37.6045 68.6246 37.5723 68.7119 37.5224C68.7978 37.4632 68.8844 37.4086 68.9716 37.3586C69.0668 37.2981 69.1586 37.2475 69.2472 37.2068C69.3344 37.1569 69.3965 37.1293 69.4335 37.1241C69.4797 37.1176 69.5226 37.121 69.5621 37.1343C69.6004 37.1383 69.626 37.1866 69.639 37.279C69.652 37.3714 69.6353 37.4869 69.5887 37.6254C69.5422 37.7638 69.4634 37.9069 69.3522 38.0545ZM66.6674 32.8333L66.9802 32.8459C67.0844 32.8501 67.1782 32.8463 67.2614 32.8346C67.3538 32.8217 67.4562 32.779 67.5685 32.7066C67.6888 32.6238 67.8013 32.5184 67.9058 32.3906C68.0196 32.2615 68.1111 32.1073 68.1801 31.9279C68.2584 31.7473 68.3057 31.5474 68.322 31.3284L68.3381 31.2413C68.2087 31.2595 68.0191 31.3191 67.7694 31.4202C67.5197 31.5212 67.264 31.6467 67.0024 31.7966C66.7394 31.9372 66.4981 32.0984 66.2786 32.28C66.0578 32.4524 65.9128 32.6283 65.8438 32.8077C65.9863 32.8159 66.1242 32.8248 66.2575 32.8343C66.3988 32.8333 66.5354 32.833 66.6674 32.8333ZM66.1738 33.9488C66.1897 33.9278 66.1951 33.8987 66.1899 33.8618C66.1939 33.8235 66.1946 33.7951 66.192 33.7766L65.5073 33.6325L65.4653 33.8364L66.1738 33.9488ZM66.2279 37.1505C66.1529 37.0856 66.0778 37.0208 66.0027 36.9559C65.9381 36.899 65.8828 36.8408 65.8368 36.7813C65.942 36.9267 66.0724 37.0498 66.2279 37.1505ZM71.5329 36.5463C71.5251 36.4908 71.5503 36.4354 71.6085 36.3801C71.6667 36.3248 71.7348 36.2729 71.8128 36.2242C71.9 36.1742 71.9833 36.1295 72.0625 36.0901C72.1511 36.0494 72.2171 36.0166 72.2608 35.9916C72.7122 35.9847 73.1623 35.9685 73.6112 35.9432C74.06 35.9178 74.5062 35.8739 74.9499 35.8116C75.1162 35.7882 75.3473 35.7557 75.6431 35.7142C75.9375 35.6633 76.2584 35.5994 76.6057 35.5223C76.953 35.4452 77.303 35.3536 77.6557 35.2475C78.0071 35.1322 78.3228 34.9982 78.603 34.8458C78.8832 34.6933 79.104 34.5209 79.2655 34.3285C79.4269 34.1362 79.4901 33.9152 79.4551 33.6657C79.4265 33.4624 79.355 33.2886 79.2404 33.1445C79.1339 32.9898 78.9982 32.8628 78.8334 32.7634C78.6766 32.6535 78.5046 32.5693 78.3173 32.5108C78.2474 32.4829 78.1735 32.4603 78.0957 32.443C78.1748 32.4696 78.2493 32.4968 78.3192 32.5247C78.4986 32.5937 78.6627 32.6885 78.8116 32.8089C78.9684 32.9188 79.1001 33.0511 79.2066 33.2058C79.3119 33.3512 79.3788 33.5256 79.4074 33.7289C79.4386 33.9508 79.382 34.1519 79.2377 34.3324C79.1014 34.5024 78.911 34.6564 78.6665 34.7944C78.4312 34.9312 78.1604 35.0493 77.8539 35.149C77.5567 35.2473 77.2576 35.3317 76.9564 35.4023C76.6553 35.4729 76.376 35.531 76.1186 35.5766C75.8598 35.613 75.6564 35.6416 75.5085 35.6624C75.0372 35.7286 74.5592 35.7816 74.0747 35.8215C73.5982 35.8507 73.121 35.8754 72.6431 35.8954C72.803 35.8258 72.9648 35.7701 73.1286 35.7282C73.3003 35.6758 73.4739 35.6373 73.6495 35.6126C73.9453 35.571 74.2371 35.5347 74.5249 35.5037C74.8114 35.4635 75.0979 35.4232 75.3844 35.3829C75.7264 35.3349 76.0631 35.2828 76.3946 35.2268C76.7247 35.1616 77.0615 35.0765 77.4049 34.9717L77.4699 35.1323C77.6046 35.085 77.7744 35.0188 77.9791 34.9334C78.1826 34.8389 78.3749 34.7317 78.556 34.612C78.7464 34.491 78.9011 34.3515 79.0203 34.1933C79.1487 34.0339 79.1999 33.8618 79.1739 33.6769C79.1362 33.4089 79.0061 33.1869 78.7834 33.0108C78.5607 32.8347 78.2858 32.6896 77.9588 32.5753C77.6396 32.4505 77.2821 32.3547 76.8863 32.2878C76.4905 32.2209 76.1012 32.1672 75.7185 32.1267C75.3451 32.085 74.9914 32.0499 74.6575 32.0214C74.3237 31.9929 74.0551 31.9599 73.8519 31.9225L73.8636 32.0057C74.0681 32.0524 74.3333 32.0952 74.6593 32.1342C74.9839 32.164 75.3329 32.1998 75.7064 32.2415C76.0891 32.282 76.4737 32.3363 76.8603 32.4045C77.2456 32.4635 77.5972 32.5507 77.915 32.6663C78.2421 32.7806 78.5123 32.9264 78.7258 33.1037C78.9484 33.2798 79.0779 33.4972 79.1143 33.756C79.1351 33.9039 79.084 34.043 78.9609 34.1734C78.8379 34.3038 78.6851 34.4242 78.5027 34.5347C78.3283 34.6346 78.1473 34.7213 77.9597 34.7948C77.7721 34.8683 77.6287 34.9214 77.5297 34.9542C77.6459 34.9096 77.7932 34.8512 77.9716 34.779C78.1579 34.6963 78.333 34.601 78.4969 34.4931C78.6701 34.3839 78.8135 34.2648 78.9273 34.1357C79.0399 33.9974 79.0851 33.8496 79.063 33.6925C79.0266 33.4337 78.8944 33.2308 78.6664 33.0838C78.4384 32.9368 78.1483 32.8173 77.7961 32.7254C77.4439 32.6336 77.0474 32.562 76.6066 32.5109C76.1659 32.4597 75.71 32.4013 75.2389 32.3355C74.7771 32.2685 74.3219 32.1816 73.8734 32.075C73.4248 31.9684 73.0167 31.8137 72.6489 31.6109C72.2811 31.4081 71.9715 31.1501 71.7201 30.8367C71.4687 30.5233 71.3092 30.1263 71.2417 29.6457C71.1754 29.1743 71.2305 28.7613 71.4068 28.4066C71.5911 28.0414 71.8446 27.7325 72.1672 27.4798C72.4978 27.2165 72.8692 27.0088 73.2814 26.8566C73.6935 26.7045 74.0983 26.6004 74.4957 26.5446C75.078 26.4628 75.6581 26.4661 76.2361 26.5545C76.8232 26.6416 77.3871 26.798 77.9278 27.0236C77.8749 27.0499 77.8465 27.0822 77.8425 27.1204C77.8371 27.1495 77.8324 27.1831 77.8284 27.2214C77.8336 27.2583 77.8289 27.292 77.8143 27.3223C77.8089 27.3513 77.7831 27.3691 77.7369 27.3756C77.7 27.3808 77.6241 27.3773 77.5093 27.3652C77.4024 27.3425 77.2863 27.3211 77.161 27.301C77.0343 27.2717 76.9129 27.2463 76.7968 27.225C76.6807 27.2036 76.6029 27.1862 76.5633 27.173L76.5393 27.3036C76.6276 27.3289 76.7417 27.3694 76.8815 27.4251C77.0292 27.4703 77.1703 27.5353 77.3048 27.6201C77.4471 27.6944 77.5677 27.7811 77.6665 27.8803C77.7745 27.9782 77.8363 28.0826 77.8519 28.1936C77.8688 28.3137 77.8218 28.3816 77.7109 28.3972C77.5722 28.4166 77.4007 28.4031 77.1962 28.3564C77.0009 28.3084 76.7819 28.2591 76.5392 28.2084C76.2951 28.1484 76.0339 28.1003 75.7555 28.0641C75.4863 28.0265 75.2177 28.0265 74.9496 28.0642C74.774 28.0889 74.5687 28.1366 74.3336 28.2073C74.1064 28.2675 73.8884 28.3594 73.6796 28.483C73.4787 28.5961 73.3153 28.7416 73.1896 28.9195C73.0625 29.0882 73.0151 29.288 73.0476 29.5191C73.0775 29.7317 73.1999 29.8982 73.4147 30.0188C73.6389 30.1382 73.9211 30.2351 74.2615 30.3098C74.6111 30.3832 75.0017 30.4462 75.4332 30.4986C75.8647 30.5511 76.3073 30.6161 76.7612 30.6937C77.2231 30.7607 77.6743 30.8528 78.1149 30.97C78.5554 31.0871 78.955 31.2478 79.3136 31.4518C79.6814 31.6546 79.9864 31.9134 80.2285 32.2281C80.4799 32.5415 80.6381 32.9292 80.703 33.3913C80.7667 33.8442 80.7282 34.2408 80.5875 34.581C80.4468 34.9212 80.2389 35.2191 79.9638 35.4745C79.6873 35.7207 79.3635 35.9312 78.9922 36.1059C78.6196 36.2713 78.2299 36.4156 77.823 36.5388C77.4242 36.6514 77.022 36.7409 76.6167 36.8073C76.2218 36.8816 75.8627 36.9415 75.5392 36.987L74.1528 37.1818C74.0696 37.1935 73.9535 37.2051 73.8043 37.2167C73.6656 37.2362 73.5257 37.2464 73.3845 37.2474C73.2445 37.2577 73.1211 37.2514 73.0143 37.2288C72.9074 37.2061 72.8501 37.167 72.8423 37.1115L72.8464 37.0403C73.2279 37.0055 73.6049 36.9714 73.9772 36.9379C74.3482 36.8952 74.7231 36.8472 75.1021 36.794C75.4533 36.7446 75.8045 36.6952 76.1557 36.6459C76.4687 36.5925 76.7803 36.5298 77.0907 36.4579C76.9348 36.4892 76.779 36.5206 76.6232 36.5519C76.4291 36.5792 76.2396 36.6058 76.0548 36.6318L75.5002 36.7097C74.6314 36.8318 73.7726 36.9242 72.9237 36.987C72.9318 36.9105 72.9339 36.8583 72.93 36.8306C72.9248 36.7936 72.9104 36.758 72.8867 36.7236C72.8682 36.7262 72.8412 36.7347 72.8055 36.7491C72.7778 36.753 72.7408 36.7582 72.6946 36.7647C72.5929 36.779 72.4767 36.7906 72.346 36.7996C72.2246 36.8072 72.1018 36.8056 71.9778 36.7948C71.863 36.7826 71.7607 36.7593 71.6711 36.7248C71.5893 36.6797 71.5433 36.6202 71.5329 36.5463ZM79.9946 34.9895C79.8569 35.1502 79.7068 35.2891 79.5442 35.4062C79.3987 35.5115 79.248 35.6128 79.0921 35.7101C79.2506 35.6313 79.4033 35.5438 79.55 35.4478C79.7152 35.3492 79.8634 35.1964 79.9946 34.9895ZM86.2438 28.3572C86.1606 28.3689 86.047 28.399 85.903 28.4475C85.7683 28.4947 85.6296 28.5472 85.4869 28.605C85.3535 28.6614 85.2293 28.7166 85.1143 28.7704C85.0086 28.823 84.9432 28.8605 84.918 28.8828C85.1532 28.8121 85.3691 28.7393 85.566 28.6645C85.7615 28.5805 85.9794 28.5216 86.2197 28.4878C86.1852 28.5775 86.1342 28.6507 86.0668 28.7073C85.9993 28.7639 85.9214 28.8125 85.8328 28.8532C85.7522 28.8834 85.6624 28.9149 85.5633 28.9477C85.463 28.9712 85.3593 29.0046 85.2523 29.0479L85.1377 28.9368C84.9712 29.0262 84.843 29.0866 84.7532 29.1181C84.6621 29.1403 84.5657 29.1586 84.464 29.1729C84.3531 29.1884 84.2375 29.2047 84.1174 29.2216C84.0052 29.2279 83.8798 29.2408 83.7411 29.2603C83.7476 29.3065 83.7482 29.3441 83.7428 29.3732C83.9554 29.3433 84.1357 29.318 84.2835 29.2972C84.4301 29.2672 84.6077 29.2233 84.8164 29.1657C84.6183 29.2313 84.442 29.2843 84.2874 29.3249C84.1421 29.3642 83.9632 29.3988 83.7506 29.4286C83.7435 29.6464 83.7404 29.8589 83.7413 30.0661C83.7421 30.2734 83.7562 30.474 83.7835 30.6681C83.7991 30.779 83.8219 30.9078 83.8519 31.0544C83.8819 31.2009 83.9126 31.3521 83.9439 31.508C83.9832 31.6532 84.0172 31.7946 84.0459 31.9319C84.0733 32.06 84.0916 32.1564 84.1007 32.2211L84.2176 33.0529C84.2898 33.2313 84.4433 33.3511 84.6781 33.4123C84.9129 33.4736 85.2383 33.475 85.6542 33.4165L86.0978 33.3542C86.2549 33.3321 86.3638 33.3356 86.4245 33.3648C86.4931 33.3834 86.5313 33.4205 86.5391 33.4759C86.5456 33.5222 86.5125 33.5551 86.4398 33.5747C86.3659 33.5851 86.292 33.5955 86.218 33.6059C85.95 33.6436 85.6655 33.6647 85.3645 33.6693C85.0821 33.6713 84.8036 33.668 84.529 33.6595C84.8062 33.6865 85.0965 33.707 85.4001 33.7208C85.7116 33.7242 86.0106 33.7057 86.2971 33.6655L86.4219 33.6479C86.4588 33.6427 86.4998 33.6323 86.5447 33.6165C86.5512 33.6627 86.557 33.7043 86.5622 33.7413C86.5767 33.777 86.5964 33.8166 86.6213 33.8602L86.7284 33.8169C86.7548 33.8038 86.7865 33.7946 86.8234 33.7894C86.8591 33.775 86.8849 33.7572 86.9008 33.7361C87.2004 33.7223 87.3626 33.8032 87.3873 33.9788C87.4016 34.0805 87.3855 34.1675 87.3392 34.24C87.2928 34.3125 87.2306 34.3731 87.1527 34.4218C87.0747 34.4704 86.9861 34.5111 86.8871 34.5439C86.7867 34.5674 86.6903 34.5857 86.5979 34.5987C86.2744 34.6441 85.9529 34.6705 85.6335 34.6777C85.322 34.6743 85.0151 34.6703 84.7129 34.6657C84.9846 34.7217 85.3231 34.7496 85.7284 34.7492C86.1336 34.7488 86.5395 34.72 86.9462 34.6628C86.8536 34.7418 86.7406 34.8095 86.6072 34.866C86.4737 34.9224 86.3331 34.9611 86.1852 34.9818L85.1695 34.9974C85.0375 34.9971 84.9332 34.9929 84.8567 34.9848C84.7894 34.9754 84.7221 34.966 84.6548 34.9566C84.5862 34.938 84.5084 34.9206 84.4213 34.9046C84.3434 34.8872 84.2326 34.8698 84.0888 34.8524L84.0673 34.6999C83.8179 34.6689 83.6083 34.5853 83.4383 34.449C83.2683 34.3126 83.1288 34.1579 83.0196 33.9847C82.9104 33.8115 82.829 33.6345 82.7753 33.4535C82.7203 33.2633 82.6824 33.0943 82.6616 32.9464C82.6395 32.7893 82.6194 32.646 82.6012 32.5166C82.591 32.3767 82.5761 32.2374 82.5566 32.0988C82.5423 31.9971 82.5195 31.8684 82.4882 31.7125C82.4661 31.5554 82.4381 31.3897 82.4042 31.2154C82.3703 31.0411 82.3357 30.8622 82.3005 30.6786C82.2745 30.4938 82.2498 30.3182 82.2265 30.1518C82.2122 30.0501 82.1985 29.9531 82.1855 29.8607C82.1818 29.7669 82.1793 29.6824 82.1782 29.6072L82.0396 29.6267C82.0394 29.6927 82.0452 29.7673 82.0569 29.8505L82.0919 30.1C82.1296 30.368 82.1719 30.6354 82.2188 30.9022C82.2644 31.1596 82.3028 31.3993 82.334 31.6211C82.3744 31.8416 82.4109 32.0344 82.4436 32.1995C82.4749 32.3553 82.4957 32.4702 82.5061 32.5441L82.5841 33.0987L82.5997 33.2096C82.5369 32.964 82.4591 32.612 82.3664 32.1538C82.2634 31.6216 82.1664 31.0321 82.0755 30.3851L82.0404 30.1355C82.0261 30.0339 82.0125 29.9368 81.9995 29.8444C81.9957 29.7507 81.9998 29.6794 82.0118 29.6306L81.5366 29.6691C81.4258 29.6187 81.317 29.5822 81.2101 29.5595C81.1033 29.5368 81.0082 29.5313 80.9251 29.543L80.8861 29.2657C80.8783 29.2103 80.8764 29.1634 80.8805 29.1251C80.8925 29.0763 80.9354 29.0467 81.0094 29.0363C81.0278 29.0337 81.0754 29.0365 81.1519 29.0446L81.1285 28.8782C81.0191 28.837 80.9255 28.7748 80.8478 28.6915C80.7688 28.5989 80.7222 28.5018 80.7079 28.4001C80.6741 28.1598 80.8282 28.0156 81.1702 27.9675C81.2996 27.9494 81.4349 27.9398 81.5761 27.9388C81.7174 27.9378 81.8626 27.9315 82.0118 27.92C82.0201 27.7114 82.0272 27.5266 82.0328 27.3656C82.0372 27.1954 82.0428 27.0343 82.0497 26.8826C82.0554 26.7215 82.0663 26.5645 82.0825 26.4114C82.0974 26.2491 82.1209 26.0809 82.1529 25.9067C82.2101 25.7102 82.2469 25.5024 82.2632 25.2833C82.2783 25.055 82.2801 24.8332 82.2687 24.6181L82.5618 24.591C82.608 24.5845 82.6469 24.5932 82.6786 24.617C82.7194 24.6395 82.747 24.7016 82.7613 24.8033C82.773 24.8865 82.7747 24.9993 82.7665 25.1419L82.9387 25.1601C82.9775 24.9002 83.0368 24.6845 83.1164 24.5131C83.2052 24.3404 83.3004 24.2469 83.4021 24.2326C83.5592 24.2105 83.6842 24.3956 83.777 24.7878L83.8121 25.0373C83.8459 25.2776 83.8592 25.5067 83.8521 25.7245C83.853 25.9317 83.8446 26.1402 83.8269 26.35C83.8093 26.5599 83.7923 26.7743 83.776 26.9934C83.7596 27.2125 83.7505 27.4494 83.7486 27.7041C83.9558 27.7033 84.1565 27.6892 84.3506 27.6619C84.443 27.6489 84.5355 27.636 84.6279 27.623C84.719 27.6007 84.8108 27.5831 84.9032 27.5701C84.9956 27.5571 85.0875 27.5065 85.1788 27.4183C85.27 27.3301 85.3573 27.2801 85.4404 27.2684C85.5144 27.258 85.5731 27.2733 85.6166 27.3144C85.66 27.3554 85.6856 27.4036 85.6934 27.4591C85.5336 27.5287 85.3743 27.6029 85.2158 27.6817C85.0651 27.75 84.9191 27.8177 84.7778 27.8847C84.923 27.8454 85.0756 27.791 85.2355 27.7214C85.3941 27.6425 85.5625 27.567 85.7409 27.4948C85.7474 27.541 85.7532 27.5826 85.7584 27.6196C85.7729 27.6553 85.7926 27.6949 85.8175 27.7385C85.836 27.7359 85.8585 27.7281 85.8849 27.7149C85.9378 27.6886 85.9688 27.6748 85.9781 27.6735C86.077 27.7068 86.1455 27.7584 86.1836 27.8284C86.2204 27.8892 86.2447 27.9612 86.2564 28.0444C86.2655 28.1091 86.2647 28.1705 86.254 28.2285C86.242 28.2774 86.2386 28.3203 86.2438 28.3572ZM83.2889 33.9893C83.1244 33.7579 83.0207 33.5227 82.9776 33.2837C82.9346 33.0447 82.8889 32.8202 82.8406 32.6102L82.4196 30.5205L82.4131 30.7759C82.5002 31.3951 82.5979 31.9563 82.7063 32.4595C82.8226 32.9521 82.9419 33.3312 83.064 33.5967C83.0757 33.6799 83.0789 33.736 83.0736 33.7651C83.0775 33.7928 83.0807 33.8159 83.0833 33.8344C83.0859 33.8529 83.0984 33.8747 83.1208 33.8998C83.1524 33.9236 83.2084 33.9535 83.2889 33.9893ZM83.9739 33.1296C83.945 33.0582 83.9247 32.981 83.913 32.8978L83.8176 32.2185C83.8213 32.3122 83.8251 32.4059 83.8288 32.4996C83.8313 32.5841 83.839 32.6726 83.852 32.765C83.8857 33.0053 83.9256 33.1882 83.9715 33.3137C84.0148 33.4207 84.0832 33.5053 84.1768 33.5676C84.1228 33.5186 84.082 33.4631 84.0544 33.401C84.0348 33.3284 84.008 33.2379 83.9739 33.1296ZM82.6272 33.3047L82.5997 33.2096L82.6272 33.3047ZM84.2065 33.5776C84.196 33.5696 84.1861 33.5663 84.1768 33.5676C84.1861 33.5663 84.196 33.5696 84.2065 33.5776ZM93.0233 30.7692C92.7738 30.8042 92.5837 30.8262 92.453 30.8352C92.3315 30.8428 92.22 30.8538 92.1183 30.8681C91.841 30.9071 91.598 30.9553 91.3893 31.0129C91.1807 31.0705 91.0082 31.1513 90.872 31.2553C90.7359 31.3593 90.6418 31.495 90.59 31.6625C90.5381 31.83 90.5304 32.0432 90.5667 32.302C90.62 32.6809 90.7012 32.957 90.8104 33.1301C90.9275 33.2927 91.0704 33.4046 91.2392 33.4657C91.416 33.5163 91.6212 33.5345 91.8549 33.5206C92.0885 33.5066 92.3532 33.5118 92.6488 33.5362C92.8177 33.5313 92.9861 33.5218 93.1537 33.5077C93.3201 33.4843 93.4864 33.4609 93.6528 33.4375L94.651 33.2972C94.185 33.3345 93.7209 33.3855 93.2588 33.4505C92.8046 33.5049 92.3875 33.5211 92.0074 33.4991C91.6365 33.4758 91.3226 33.388 91.0655 33.2356C90.8177 33.082 90.6672 32.8157 90.614 32.4367C90.5711 32.1317 90.5756 31.8955 90.6274 31.7279C90.6872 31.5499 90.7766 31.4148 90.8957 31.3227C91.0226 31.22 91.1778 31.1511 91.3614 31.1158C91.5436 31.0714 91.7411 31.0342 91.9536 31.0043C92.2124 30.968 92.4778 30.9448 92.7497 30.9349C92.5462 31.0294 92.3362 31.1108 92.1196 31.1789C91.9109 31.2365 91.7167 31.2968 91.5371 31.3598C91.3561 31.4135 91.2002 31.4778 91.0694 31.5527C90.9465 31.6171 90.8684 31.6988 90.8352 31.7977L90.9229 32.4216L90.8197 32.4926C90.8892 32.7185 90.9462 32.8895 90.9908 33.0058C91.0434 33.1115 91.1481 33.1863 91.3051 33.2302C91.4608 33.2649 91.703 33.278 92.0317 33.2695C92.3696 33.2597 92.8586 33.2523 93.4988 33.2471L94.497 33.1068C94.6726 33.0821 94.7736 33.0632 94.8001 33.0501C94.8344 33.0264 94.8562 33.0139 94.8655 33.0126L94.6355 32.2815C94.591 32.0993 94.5445 31.9361 94.496 31.7922C94.4475 31.6482 94.3885 31.4962 94.3189 31.3364C94.3135 31.3654 94.2877 31.3832 94.2415 31.3897C94.3098 31.5403 94.3702 31.7015 94.4226 31.8732C94.4842 32.0436 94.5353 32.206 94.5759 32.3606C94.6257 32.5138 94.663 32.6452 94.6879 32.7548C94.7219 32.8631 94.7495 32.9252 94.7706 32.9411L94.6913 32.9805C94.6741 32.9924 94.6471 33.0009 94.6101 33.0061L94.5269 33.0178C94.4622 33.0269 94.3876 33.0327 94.3031 33.0351C94.2174 33.0283 94.1098 33.034 93.9804 33.0522L93.5229 33.1165C93.1624 33.1671 92.8271 33.1954 92.5169 33.2013C92.2252 33.2046 91.9691 33.1935 91.7488 33.1679C91.9678 33.1842 92.2318 33.1848 92.5407 33.1697C92.8694 33.1612 93.1724 33.1375 93.4497 33.0985C93.5698 33.0816 93.6946 33.0641 93.824 33.0459C93.9613 33.0172 94.1085 32.9918 94.2657 32.9697L94.7232 32.9054C94.6915 32.8816 94.6572 32.8722 94.6203 32.8774L94.5926 32.8813C94.466 32.2488 94.297 31.6505 94.0858 31.0864C93.8746 30.5223 93.5952 30.0432 93.2476 29.649C92.8987 29.2457 92.4751 28.9471 91.9766 28.7532C91.4768 28.5501 90.8803 28.4973 90.1871 28.5947C89.993 28.622 89.8009 28.6631 89.6107 28.7182C89.4205 28.7732 89.227 28.8381 89.0301 28.9128C89.046 28.8918 89.0526 28.872 89.05 28.8535C89.0436 28.8073 89.0192 28.7683 88.9771 28.7365C88.9336 28.6955 88.9086 28.6519 88.9021 28.6057C88.8943 28.5502 88.9426 28.4916 89.047 28.4298C89.1594 28.3574 89.4018 28.2715 89.7743 28.1721C89.7532 28.1562 89.7354 28.1304 89.721 28.0947C89.7158 28.0578 89.7119 28.03 89.7093 28.0116C89.2102 28.0817 88.8207 28.127 88.5408 28.1475C88.2597 28.1587 88.1113 28.1089 88.0957 27.998C88.0892 27.9518 88.1356 27.8793 88.2348 27.7805C88.3432 27.6804 88.4986 27.5785 88.7008 27.4747C88.9016 27.3616 89.1461 27.2566 89.434 27.1596C89.7299 27.052 90.0627 26.9722 90.4324 26.9203C91.1441 26.8203 91.7697 26.8454 92.3092 26.9958C92.8474 27.137 93.3129 27.3637 93.7055 27.6761C94.1061 27.978 94.4445 28.3404 94.7207 28.7634C95.0062 29.1851 95.2461 29.6179 95.4404 30.0619C95.6427 30.4953 95.8067 30.9246 95.9325 31.3499C96.0569 31.766 96.1689 32.1273 96.2686 32.4337C96.2764 32.4892 96.2842 32.5446 96.2919 32.6001C96.309 32.6542 96.3227 32.7183 96.3331 32.7922C96.3708 33.0603 96.353 33.3031 96.28 33.5207C96.2148 33.7278 96.1035 33.9084 95.9461 34.0624C95.7992 34.2245 95.6148 34.3541 95.3928 34.4512C95.1814 34.5563 94.9463 34.6271 94.6875 34.6635C94.4842 34.692 94.2201 34.7244 93.8953 34.7607C93.5705 34.7969 93.257 34.8127 92.9548 34.808C92.7542 34.7891 92.5364 34.782 92.3014 34.7867C92.0678 34.8007 91.8269 34.7969 91.5788 34.7752C91.3307 34.7535 91.084 34.7081 90.8386 34.6389C90.6025 34.5684 90.3777 34.4445 90.1643 34.2671C89.9588 34.0792 89.7773 33.8267 89.6196 33.5095C89.4712 33.1911 89.3612 32.7777 89.2898 32.2694C89.2222 31.7888 89.2792 31.3896 89.4608 31.0719C89.641 30.745 89.8726 30.4815 90.1556 30.2815C90.4464 30.071 90.7503 29.9199 91.0673 29.8282C91.383 29.7273 91.6425 29.6626 91.8459 29.634C92.1047 29.5976 92.2783 29.5921 92.3666 29.6173C92.455 29.6426 92.5018 29.6738 92.507 29.7107C92.5109 29.7385 92.5095 29.7622 92.5029 29.782C92.2718 29.8145 91.9773 29.8653 91.6195 29.9344C91.2616 30.0036 90.9189 30.113 90.5912 30.2627C90.2727 30.4112 90.0083 30.6085 89.7979 30.8549C89.5861 31.092 89.5069 31.4 89.5602 31.779C89.5953 31.4253 89.6962 31.1378 89.8631 30.9164C90.0378 30.6845 90.2481 30.5042 90.4939 30.3754C90.7384 30.2373 90.9934 30.1402 91.2588 30.0841C91.5322 30.0174 91.7798 29.9684 92.0016 29.9373L92.473 29.871C92.4412 29.9132 92.4279 29.9528 92.4331 29.9897C92.4383 30.0267 92.4613 30.0564 92.5022 30.079L93.0429 30.003C93.1947 30.0099 93.3081 30.0458 93.3832 30.1107C93.457 30.1663 93.4978 30.2218 93.5056 30.2773C93.5172 30.3604 93.486 30.4402 93.412 30.5166C93.3379 30.593 93.2083 30.6772 93.0233 30.7692ZM91.1657 34.4515C91.4388 34.5168 91.7133 34.5584 91.9891 34.5762C92.2742 34.5926 92.552 34.5913 92.8226 34.5721C93.0946 34.5622 93.3461 34.541 93.5771 34.5085C93.3897 34.516 93.2003 34.5096 93.0089 34.4894C92.8083 34.4704 92.6315 34.4529 92.4784 34.4367C92.3161 34.4218 92.1558 34.4208 91.9973 34.4336C91.8469 34.4359 91.6865 34.4349 91.5162 34.4305C91.3552 34.4249 91.1876 34.406 91.0135 34.374C90.838 34.3326 90.6586 34.2636 90.4754 34.1668C90.6731 34.2993 90.9032 34.3942 91.1657 34.4515ZM91.0998 32.9763C91.0892 32.9684 91.1209 32.9922 91.1947 33.0478C91.2579 33.0955 91.3377 33.1267 91.434 33.1414C91.3852 33.1295 91.3126 33.1161 91.2163 33.1013C91.1095 33.0787 91.0508 33.0304 91.0404 32.9564L91.0998 32.9763ZM91.4756 33.1356C91.4664 33.1369 91.4525 33.1388 91.434 33.1414C91.4433 33.1401 91.4571 33.1382 91.4756 33.1356ZM100.511 33.5765C100.421 33.6079 100.32 33.6315 100.209 33.6471L99.8074 33.7036C99.5671 33.7373 99.4 33.7891 99.3061 33.8588C99.2215 33.9273 99.1699 33.9628 99.1514 33.9654L99.0609 33.7237L99.0258 33.4741L98.7733 32.1807C98.7198 31.9337 98.6313 31.6728 98.5078 31.398C98.3844 31.1232 98.2788 30.8411 98.191 30.5518C98.136 30.3617 98.0869 30.1801 98.0437 30.007L97.9123 29.4741C97.8678 29.2919 97.8181 29.1057 97.7631 28.9155C97.7173 28.724 97.6558 28.5206 97.5784 28.3052C97.5706 28.2498 97.5628 28.1943 97.555 28.1389C97.5564 28.0821 97.5533 28.026 97.5455 27.9706C97.5052 27.6841 97.4425 27.4054 97.3573 27.1346C97.2721 26.8638 97.1691 26.6003 97.0482 26.3439C97.109 26.3071 97.1659 26.2756 97.2187 26.2493C97.2703 26.2138 97.3192 26.1928 97.3654 26.1863C97.4116 26.1798 97.4702 26.2281 97.5413 26.3312C97.611 26.4251 97.7016 26.6338 97.8131 26.9575C97.8316 26.9549 97.8586 26.9463 97.8943 26.9319C97.9287 26.9082 97.9551 26.8951 97.9736 26.8925C97.9423 26.7367 97.8958 26.5736 97.8341 26.4031C97.7712 26.2235 97.7095 26.0531 97.6492 25.8919C97.5888 25.7307 97.5311 25.5881 97.4759 25.4639C97.4287 25.3291 97.3993 25.2201 97.3876 25.137C97.385 25.1185 97.3817 25.0954 97.3778 25.0676C97.3832 25.0386 97.4043 25.0215 97.4413 25.0163C97.4875 25.0098 97.5547 25.0522 97.643 25.1435C97.7312 25.2348 97.8279 25.3531 97.9332 25.4985C98.0385 25.644 98.1411 25.8039 98.241 25.9784C98.3488 26.1423 98.4462 26.2983 98.5329 26.4463C98.7162 25.9399 98.9481 25.5444 99.2286 25.2599C99.517 24.9649 99.92 24.7811 100.438 24.7083C100.817 24.6551 101.133 24.6578 101.386 24.7164C101.638 24.7658 101.836 24.8369 101.981 24.9296C102.134 25.0118 102.24 25.0958 102.3 25.1818L102.402 25.3087C102.41 25.3642 102.388 25.405 102.335 25.4313C102.062 25.234 101.765 25.0967 101.443 25.0195C101.121 24.9422 100.798 24.9263 100.475 24.9717C100.16 25.0159 99.9305 25.0906 99.7851 25.1959C99.6476 25.2906 99.5035 25.4051 99.3527 25.5394C99.5127 25.4038 99.6621 25.2933 99.8009 25.2078C99.9489 25.121 100.171 25.0568 100.467 25.0153C100.79 24.9698 101.109 24.991 101.423 25.0788C101.735 25.1574 102.012 25.2788 102.252 25.443C102.208 25.468 102.17 25.4969 102.136 25.5299C102.111 25.5523 102.102 25.5866 102.109 25.6328C102.155 25.6263 102.21 25.6515 102.275 25.7084C102.338 25.756 102.398 25.8182 102.456 25.8949C102.514 25.9716 102.564 26.0542 102.604 26.1427C102.653 26.2207 102.681 26.2874 102.689 26.3429C102.711 26.5 102.662 26.587 102.542 26.6039C102.449 26.6169 102.334 26.6001 102.196 26.5536C102.166 26.5483 102.099 26.5059 101.994 26.4264C101.898 26.3457 101.778 26.2682 101.636 26.194C101.492 26.1105 101.331 26.0389 101.153 25.9791C100.975 25.9193 100.785 25.9036 100.581 25.9322C100.415 25.9556 100.272 26.0134 100.153 26.1055C100.042 26.1871 99.9443 26.2951 99.8595 26.4295C99.7734 26.5547 99.6992 26.6971 99.6368 26.8567L99.5033 27.2147C99.6069 26.9457 99.7276 26.6978 99.8654 26.4711C100.016 26.2048 100.231 26.0522 100.508 26.0132C100.748 25.9795 100.978 26.0037 101.197 26.0861C101.414 26.1592 101.599 26.2652 101.75 26.4041C101.584 26.3615 101.39 26.3228 101.169 26.288C100.947 26.2531 100.739 26.2494 100.545 26.2766C100.443 26.2909 100.359 26.3264 100.291 26.383C100.224 26.4396 100.168 26.5088 100.122 26.5905C100.085 26.6617 100.05 26.7421 100.015 26.8318C99.9897 26.9202 99.9592 27.0046 99.9234 27.085L99.747 27.1381C99.6276 27.4282 99.5423 27.7606 99.4913 28.1354C99.4483 28.4996 99.454 28.8758 99.5086 29.2639C99.5411 29.495 99.5795 29.7017 99.624 29.8839C99.6777 30.0649 99.7413 30.2491 99.8148 30.4367L100.042 30.8431L99.9573 30.445C99.8947 30.1333 99.8372 29.8587 99.785 29.621C99.7314 29.374 99.6838 29.1026 99.6423 28.8069C99.6231 28.5363 99.6243 28.2769 99.646 28.0288C99.6637 27.819 99.7063 27.6198 99.7741 27.4312C99.6944 27.6686 99.6561 27.9331 99.6594 28.2248C99.6574 28.5456 99.681 28.8816 99.7304 29.2328C99.7694 29.51 99.8202 29.7715 99.883 30.0172C99.9458 30.2628 100.013 30.5078 100.085 30.7522C100.167 30.9952 100.249 31.2475 100.333 31.509C100.416 31.7613 100.493 32.0427 100.565 32.353L100.643 32.6106L100.838 33.3891L100.511 33.5765ZM99.8059 27.356L99.7741 27.4312L99.8059 27.356Z" fill="white"/>
<path d="M47.773 13.14C47.2503 13.14 46.8116 13.0513 46.457 12.874C46.1116 12.6967 45.855 12.4727 45.687 12.202L45.589 12.65C45.5703 12.7527 45.519 12.8367 45.435 12.902C45.3603 12.9673 45.2716 13 45.169 13H43.601C43.4983 13 43.419 12.9673 43.363 12.902C43.3163 12.8367 43.3023 12.7527 43.321 12.65L45.281 3.41C45.2996 3.30733 45.3463 3.22333 45.421 3.158C45.505 3.09267 45.5983 3.06 45.701 3.06H47.409C47.5116 3.06 47.5863 3.09267 47.633 3.158C47.689 3.22333 47.7076 3.30733 47.689 3.41L47.045 6.406C47.3343 6.16333 47.6376 5.96733 47.955 5.818C48.2816 5.65933 48.6736 5.58 49.131 5.58C49.5976 5.58 49.999 5.65933 50.335 5.818C50.6803 5.96733 50.9556 6.182 51.161 6.462C51.3663 6.742 51.5063 7.08267 51.581 7.484C51.6556 7.88533 51.6463 8.338 51.553 8.842C51.525 9.01933 51.4923 9.192 51.455 9.36C51.427 9.51867 51.385 9.69133 51.329 9.878C51.161 10.5593 50.9136 11.1473 50.587 11.642C50.2603 12.1273 49.859 12.5007 49.383 12.762C48.9163 13.014 48.3796 13.14 47.773 13.14ZM47.283 11.264C47.591 11.264 47.8476 11.1987 48.053 11.068C48.2676 10.9373 48.4403 10.76 48.571 10.536C48.7016 10.312 48.809 10.0647 48.893 9.794C48.9396 9.654 48.977 9.50933 49.005 9.36C49.0423 9.21067 49.0656 9.066 49.075 8.926C49.1216 8.65533 49.131 8.408 49.103 8.184C49.075 7.96 48.991 7.78267 48.851 7.652C48.711 7.52133 48.4823 7.456 48.165 7.456C47.8756 7.456 47.619 7.52133 47.395 7.652C47.171 7.77333 46.989 7.93667 46.849 8.142C46.709 8.338 46.6063 8.55267 46.541 8.786C46.4943 8.96333 46.4523 9.136 46.415 9.304C46.3776 9.472 46.3496 9.64933 46.331 9.836C46.2843 10.088 46.2796 10.3213 46.317 10.536C46.3543 10.7507 46.4476 10.928 46.597 11.068C46.7556 11.1987 46.9843 11.264 47.283 11.264ZM55.5833 13.14C54.8553 13.14 54.244 13.0093 53.7493 12.748C53.264 12.4773 52.928 12.076 52.7413 11.544C52.564 11.012 52.5453 10.3587 52.6853 9.584C52.704 9.51867 52.7227 9.43467 52.7413 9.332C52.76 9.22933 52.7787 9.15 52.7973 9.094C52.984 8.35667 53.2827 7.72667 53.6933 7.204C54.104 6.672 54.608 6.27067 55.2053 6C55.8027 5.72 56.4607 5.58 57.1793 5.58C58.0007 5.58 58.64 5.74333 59.0973 6.07C59.564 6.39667 59.872 6.84 60.0213 7.4C60.18 7.96 60.1847 8.59933 60.0353 9.318L59.9793 9.654C59.9607 9.75667 59.9047 9.84067 59.8113 9.906C59.7273 9.97133 59.634 10.004 59.5313 10.004H55.0653C55.0653 10.0133 55.0607 10.0273 55.0513 10.046C55.0513 10.0647 55.0467 10.0833 55.0373 10.102C54.9907 10.3727 54.986 10.62 55.0233 10.844C55.0607 11.068 55.154 11.2453 55.3033 11.376C55.4527 11.5067 55.6533 11.572 55.9053 11.572C56.0827 11.572 56.2413 11.544 56.3813 11.488C56.5213 11.4227 56.6427 11.3527 56.7453 11.278C56.848 11.194 56.932 11.124 56.9973 11.068C57.1 10.9747 57.1793 10.9187 57.2353 10.9C57.2913 10.872 57.3753 10.858 57.4873 10.858H59.2233C59.3167 10.858 59.3867 10.886 59.4333 10.942C59.48 10.9887 59.4893 11.0587 59.4613 11.152C59.4147 11.3107 59.2933 11.502 59.0973 11.726C58.9107 11.95 58.6493 12.174 58.3133 12.398C57.9773 12.6127 57.5807 12.79 57.1233 12.93C56.666 13.07 56.1527 13.14 55.5833 13.14ZM55.3593 8.618H57.7253L57.7393 8.59C57.814 8.29133 57.8233 8.03 57.7673 7.806C57.7207 7.582 57.618 7.40933 57.4593 7.288C57.31 7.16667 57.1093 7.106 56.8573 7.106C56.6053 7.106 56.3767 7.16667 56.1713 7.288C55.9753 7.40933 55.8073 7.582 55.6673 7.806C55.5367 8.03 55.434 8.29133 55.3593 8.59V8.618ZM64.1625 13C63.5185 13 62.9865 12.9067 62.5665 12.72C62.1558 12.524 61.8758 12.2253 61.7265 11.824C61.5772 11.4133 61.5678 10.886 61.6985 10.242L62.2725 7.554H61.1805C61.0778 7.554 60.9985 7.52133 60.9425 7.456C60.8958 7.39067 60.8818 7.30667 60.9005 7.204L61.1385 6.07C61.1572 5.96733 61.2085 5.88333 61.2925 5.818C61.3765 5.75267 61.4652 5.72 61.5585 5.72H62.6645L63.1545 3.41C63.1732 3.30733 63.2198 3.22333 63.2945 3.158C63.3785 3.09267 63.4718 3.06 63.5745 3.06H65.1985C65.2918 3.06 65.3665 3.09267 65.4225 3.158C65.4785 3.22333 65.4972 3.30733 65.4785 3.41L64.9885 5.72H66.7385C66.8412 5.72 66.9158 5.75267 66.9625 5.818C67.0185 5.88333 67.0372 5.96733 67.0185 6.07L66.7805 7.204C66.7618 7.30667 66.7105 7.39067 66.6265 7.456C66.5425 7.52133 66.4538 7.554 66.3605 7.554H64.5965L64.0645 10.046C64.0272 10.2607 64.0085 10.4473 64.0085 10.606C64.0085 10.7553 64.0552 10.872 64.1485 10.956C64.2418 11.04 64.3958 11.082 64.6105 11.082H65.7305C65.8238 11.082 65.8938 11.1147 65.9405 11.18C65.9965 11.2453 66.0152 11.3293 65.9965 11.432L65.7445 12.65C65.7258 12.7527 65.6745 12.8367 65.5905 12.902C65.5158 12.9673 65.4272 13 65.3245 13H64.1625ZM70.6293 13C69.9853 13 69.4533 12.9067 69.0333 12.72C68.6226 12.524 68.3426 12.2253 68.1933 11.824C68.0439 11.4133 68.0346 10.886 68.1653 10.242L68.7393 7.554H67.6473C67.5446 7.554 67.4653 7.52133 67.4093 7.456C67.3626 7.39067 67.3486 7.30667 67.3673 7.204L67.6053 6.07C67.6239 5.96733 67.6753 5.88333 67.7593 5.818C67.8433 5.75267 67.9319 5.72 68.0253 5.72H69.1313L69.6213 3.41C69.6399 3.30733 69.6866 3.22333 69.7613 3.158C69.8453 3.09267 69.9386 3.06 70.0413 3.06H71.6653C71.7586 3.06 71.8333 3.09267 71.8893 3.158C71.9453 3.22333 71.9639 3.30733 71.9453 3.41L71.4553 5.72H73.2053C73.3079 5.72 73.3826 5.75267 73.4293 5.818C73.4853 5.88333 73.5039 5.96733 73.4853 6.07L73.2473 7.204C73.2286 7.30667 73.1773 7.39067 73.0933 7.456C73.0093 7.52133 72.9206 7.554 72.8273 7.554H71.0633L70.5313 10.046C70.4939 10.2607 70.4753 10.4473 70.4753 10.606C70.4753 10.7553 70.5219 10.872 70.6153 10.956C70.7086 11.04 70.8626 11.082 71.0773 11.082H72.1973C72.2906 11.082 72.3606 11.1147 72.4073 11.18C72.4633 11.2453 72.4819 11.3293 72.4633 11.432L72.2113 12.65C72.1926 12.7527 72.1413 12.8367 72.0573 12.902C71.9826 12.9673 71.8939 13 71.7913 13H70.6293ZM76.8021 13.14C76.0741 13.14 75.4627 13.0093 74.9681 12.748C74.4827 12.4773 74.1467 12.076 73.9601 11.544C73.7827 11.012 73.7641 10.3587 73.9041 9.584C73.9227 9.51867 73.9414 9.43467 73.9601 9.332C73.9787 9.22933 73.9974 9.15 74.0161 9.094C74.2027 8.35667 74.5014 7.72667 74.9121 7.204C75.3227 6.672 75.8267 6.27067 76.4241 6C77.0214 5.72 77.6794 5.58 78.3981 5.58C79.2194 5.58 79.8587 5.74333 80.3161 6.07C80.7827 6.39667 81.0907 6.84 81.2401 7.4C81.3987 7.96 81.4034 8.59933 81.2541 9.318L81.1981 9.654C81.1794 9.75667 81.1234 9.84067 81.0301 9.906C80.9461 9.97133 80.8527 10.004 80.7501 10.004H76.2841C76.2841 10.0133 76.2794 10.0273 76.2701 10.046C76.2701 10.0647 76.2654 10.0833 76.2561 10.102C76.2094 10.3727 76.2047 10.62 76.2421 10.844C76.2794 11.068 76.3727 11.2453 76.5221 11.376C76.6714 11.5067 76.8721 11.572 77.1241 11.572C77.3014 11.572 77.4601 11.544 77.6001 11.488C77.7401 11.4227 77.8614 11.3527 77.9641 11.278C78.0667 11.194 78.1507 11.124 78.2161 11.068C78.3187 10.9747 78.3981 10.9187 78.4541 10.9C78.5101 10.872 78.5941 10.858 78.7061 10.858H80.4421C80.5354 10.858 80.6054 10.886 80.6521 10.942C80.6987 10.9887 80.7081 11.0587 80.6801 11.152C80.6334 11.3107 80.5121 11.502 80.3161 11.726C80.1294 11.95 79.8681 12.174 79.5321 12.398C79.1961 12.6127 78.7994 12.79 78.3421 12.93C77.8847 13.07 77.3714 13.14 76.8021 13.14ZM76.5781 8.618H78.9441L78.9581 8.59C79.0327 8.29133 79.0421 8.03 78.9861 7.806C78.9394 7.582 78.8367 7.40933 78.6781 7.288C78.5287 7.16667 78.3281 7.106 78.0761 7.106C77.8241 7.106 77.5954 7.16667 77.3901 7.288C77.1941 7.40933 77.0261 7.582 76.8861 7.806C76.7554 8.03 76.6527 8.29133 76.5781 8.59V8.618ZM81.9232 13C81.8206 13 81.7412 12.9673 81.6852 12.902C81.6292 12.8367 81.6106 12.7527 81.6292 12.65L83.0292 6.07C83.0479 5.97667 83.0992 5.89733 83.1832 5.832C83.2672 5.75733 83.3606 5.72 83.4632 5.72H85.0732C85.1759 5.72 85.2506 5.75733 85.2972 5.832C85.3532 5.89733 85.3719 5.97667 85.3532 6.07L85.2412 6.63C85.4652 6.35 85.7452 6.13067 86.0812 5.972C86.4172 5.804 86.8326 5.72 87.3272 5.72H88.1252C88.2186 5.72 88.2886 5.75267 88.3352 5.818C88.3912 5.88333 88.4099 5.96733 88.3912 6.07L88.0972 7.512C88.0786 7.60533 88.0272 7.68933 87.9432 7.764C87.8592 7.82933 87.7659 7.862 87.6632 7.862H86.3052C85.9226 7.862 85.6052 7.96933 85.3532 8.184C85.1012 8.38933 84.9332 8.68333 84.8492 9.066L84.0792 12.65C84.0606 12.7527 84.0092 12.8367 83.9252 12.902C83.8506 12.9673 83.7619 13 83.6592 13H81.9232Z" fill="#ADADAD"/>
<path d="M42.9154 43.9278V43.9278C43.2278 46.3717 45.5881 48.007 47.9859 47.4408L68.4944 42.5985C75.8192 40.8691 83.2729 39.7398 90.7814 39.222V39.222C92.9239 39.0742 95.0746 39.0934 97.2141 39.2795L105.5 40" stroke="#E7E7E7" stroke-linecap="round"/>
</svg>
