<svg width="12" height="12" viewBox="0 0 12 12" fill="none" xmlns="http://www.w3.org/2000/svg">
<path d="M2 2.7C2 2.51435 2.07902 2.3363 2.21967 2.20503C2.36032 2.07375 2.55109 2 2.75 2H10.25C10.4489 2 10.6397 2.07375 10.7803 2.20503C10.921 2.3363 11 2.51435 11 2.7C11 2.88565 10.921 3.0637 10.7803 3.19497C10.6397 3.32625 10.4489 3.4 10.25 3.4H2.75C2.55109 3.4 2.36032 3.32625 2.21967 3.19497C2.07902 3.0637 2 2.88565 2 2.7ZM3.5 5.5C3.5 5.31435 3.57902 5.1363 3.71967 5.00503C3.86032 4.87375 4.05109 4.8 4.25 4.8H8.75C8.94891 4.8 9.13968 4.87375 9.28033 5.00503C9.42098 5.1363 9.5 5.31435 9.5 5.5C9.5 5.68565 9.42098 5.8637 9.28033 5.99497C9.13968 6.12625 8.94891 6.2 8.75 6.2H4.25C4.05109 6.2 3.86032 6.12625 3.71967 5.99497C3.57902 5.8637 3.5 5.68565 3.5 5.5ZM5.75 7.6C5.55109 7.6 5.36032 7.67375 5.21967 7.80503C5.07902 7.9363 5 8.11435 5 8.3C5 8.48565 5.07902 8.6637 5.21967 8.79498C5.36032 8.92625 5.55109 9 5.75 9H7.25C7.44891 9 7.63968 8.92625 7.78033 8.79498C7.92098 8.6637 8 8.48565 8 8.3C8 8.11435 7.92098 7.9363 7.78033 7.80503C7.63968 7.67375 7.44891 7.6 7.25 7.6H5.75Z" fill="#767D8F"/>
</svg>
