<svg width="12" height="12" viewBox="0 0 12 12" fill="none" xmlns="http://www.w3.org/2000/svg">
<path d="M7.00007 6V9.94C7.02007 10.09 6.97007 10.25 6.85507 10.355C6.80881 10.4014 6.75386 10.4381 6.69338 10.4632C6.63289 10.4883 6.56805 10.5012 6.50257 10.5012C6.43708 10.5012 6.37224 10.4883 6.31175 10.4632C6.25127 10.4381 6.19632 10.4014 6.15007 10.355L5.14507 9.35C5.09053 9.29669 5.04907 9.23149 5.02391 9.1595C4.99876 9.08751 4.9906 9.01067 5.00007 8.935V6H4.98507L2.10507 2.31C2.02387 2.20577 1.98723 2.07363 2.00316 1.94246C2.01909 1.8113 2.08628 1.69177 2.19007 1.61C2.28507 1.54 2.39007 1.5 2.50007 1.5H9.50007C9.61007 1.5 9.71507 1.54 9.81007 1.61C9.91385 1.69177 9.98104 1.8113 9.99697 1.94246C10.0129 2.07363 9.97626 2.20577 9.89507 2.31L7.01507 6H7.00007Z" fill="#9DA2AF"/>
</svg>
