<svg width="24" height="25" viewBox="0 0 24 25" fill="none" xmlns="http://www.w3.org/2000/svg">
<path d="M18 22.7879C17.1667 22.7879 16.4583 22.4962 15.875 21.9129C15.2917 21.3295 15 20.6212 15 19.7879C15 19.6712 15.0083 19.5502 15.025 19.4249C15.0417 19.2995 15.0667 19.1872 15.1 19.0879L8.05 14.9879C7.76667 15.2379 7.45 15.4339 7.1 15.5759C6.75 15.7179 6.38333 15.7885 6 15.7879C5.16667 15.7879 4.45833 15.4962 3.875 14.9129C3.29167 14.3295 3 13.6212 3 12.7879C3 11.9545 3.29167 11.2462 3.875 10.6629C4.45833 10.0795 5.16667 9.78787 6 9.78787C6.38333 9.78787 6.75 9.85887 7.1 10.0009C7.45 10.1429 7.76667 10.3385 8.05 10.5879L15.1 6.48787C15.0667 6.38787 15.0417 6.27554 15.025 6.15087C15.0083 6.02621 15 5.90521 15 5.78787C15 4.95454 15.2917 4.24621 15.875 3.66287C16.4583 3.07954 17.1667 2.78787 18 2.78787C18.8333 2.78787 19.5417 3.07954 20.125 3.66287C20.7083 4.24621 21 4.95454 21 5.78787C21 6.62121 20.7083 7.32954 20.125 7.91287C19.5417 8.49621 18.8333 8.78787 18 8.78787C17.6167 8.78787 17.25 8.71721 16.9 8.57587C16.55 8.43454 16.2333 8.23854 15.95 7.98787L8.9 12.0879C8.93333 12.1879 8.95833 12.3005 8.975 12.4259C8.99167 12.5512 9 12.6719 9 12.7879C9 12.9045 8.99167 13.0255 8.975 13.1509C8.95833 13.2762 8.93333 13.3885 8.9 13.4879L15.95 17.5879C16.2333 17.3379 16.55 17.1422 16.9 17.0009C17.25 16.8595 17.6167 16.7885 18 16.7879C18.8333 16.7879 19.5417 17.0795 20.125 17.6629C20.7083 18.2462 21 18.9545 21 19.7879C21 20.6212 20.7083 21.3295 20.125 21.9129C19.5417 22.4962 18.8333 22.7879 18 22.7879Z" fill="white"/>
</svg>
